<?xml version="1.0" encoding="UTF-8"?>
<svg id="Layer_2" data-name="Layer 2" xmlns="http://www.w3.org/2000/svg" viewBox="0 0 320.90088 58.59424">
  <defs>
    <style>
      .cls-1 {
        fill: #ff2727;
        font-size: 48px;
      }

      .cls-1, .cls-2 {
        font-family: FalconPunch, 'Falcon Punch';
      }

      .cls-2 {
        font-size: 14.5889px;
      }

      .cls-2, .cls-3 {
        fill: #474747;
      }
    </style>
  </defs>
  <g id="Layer_3" data-name="Layer 3">
    <text class="cls-1" transform="translate(3.62451 40.46338)"><tspan x="0" y="0">GT3FORC3</tspan></text>
    <text class="cls-2" transform="translate(0 56.01221)"><tspan x="0" y="0">SIM RACING COMMUNITY</tspan></text>
    <polygon class="cls-3" points="245.24951 50.71338 240.24951 50.71338 242.24951 45.71338 247.24951 45.71338 245.24951 50.71338"/>
    <polygon class="cls-3" points="248.24951 55.71338 243.24951 55.71338 245.24951 50.71338 250.24951 50.71338 248.24951 55.71338"/>
    <polygon class="cls-3" points="255.24951 50.71338 250.24951 50.71338 252.24951 45.71338 257.24951 45.71338 255.24951 50.71338"/>
    <polygon class="cls-3" points="258.24951 55.71338 253.24951 55.71338 255.24951 50.71338 260.24951 50.71338 258.24951 55.71338"/>
    <polygon class="cls-3" points="265.24951 50.71338 260.24951 50.71338 262.24951 45.71338 267.24951 45.71338 265.24951 50.71338"/>
    <polygon class="cls-3" points="268.24951 55.71338 263.24951 55.71338 265.24951 50.71338 270.24951 50.71338 268.24951 55.71338"/>
    <polygon class="cls-3" points="275.24951 50.71338 270.24951 50.71338 272.24951 45.71338 277.24951 45.71338 275.24951 50.71338"/>
    <polygon class="cls-3" points="278.24951 55.71338 273.24951 55.71338 275.24951 50.71338 280.24951 50.71338 278.24951 55.71338"/>
    <polygon class="cls-3" points="285.24951 50.71338 280.24951 50.71338 282.24951 45.71338 287.24951 45.71338 285.24951 50.71338"/>
    <polygon class="cls-3" points="288.24951 55.71338 283.24951 55.71338 285.24951 50.71338 290.24951 50.71338 288.24951 55.71338"/>
    <polygon class="cls-3" points="295.24951 50.71338 290.24951 50.71338 292.24951 45.71338 297.24951 45.71338 295.24951 50.71338"/>
    <polygon class="cls-3" points="298.24951 55.71338 293.24951 55.71338 295.24951 50.71338 300.24951 50.71338 298.24951 55.71338"/>
    <polygon class="cls-3" points="305.24951 50.71338 300.24951 50.71338 302.24951 45.71338 307.24951 45.71338 305.24951 50.71338"/>
  </g>
</svg>